# xmcd
#
# Track frame offsets:
#	150
#	23445
#	49355
#	71662
#	89700
#	108172
#	132740
#	152490
#	171522
#	191930
#
# Disc length: 2885 seconds
#
# Revision: 6
# Processed by: cddbd v1.5.2PL0 Copyright (c) Steve Scherf et al.
# Submitted via: EZCDAudioConverter 2.1.1.1
#
DISCID=900b430a
DTITLE=Thai Chau - Nhac Tinh Bat Hu #2
DYEAR=1900
DGENRE=Blues
TTITLE0=Dung yeu toi
TTITLE1=Tieng Mua dem
TTITLE2=Bai cuoi cho nguoi tinh
TTITLE3=Tinh ho
TTITLE4=Da khuc
TTITLE5=Toi muon quen nguoi
TTITLE6=Tien em
TTITLE7=Nhu giot sau roi
TTITLE8=Bai khong ten so 8
TTITLE9=Chuyen tinh buon
EXTD=
EXTT0=
EXTT1=
EXTT2=
EXTT3=
EXTT4=
EXTT5=
EXTT6=
EXTT7=
EXTT8=
EXTT9=
PLAYORDER=
